<?xml version="1.0" encoding="UTF-8" standalone="no"?>
<!-- Created with Inkscape (http://www.inkscape.org/) -->

<svg
   xmlns:dc="http://purl.org/dc/elements/1.1/"
   xmlns:cc="http://creativecommons.org/ns#"
   xmlns:rdf="http://www.w3.org/1999/02/22-rdf-syntax-ns#"
   xmlns:svg="http://www.w3.org/2000/svg"
   xmlns="http://www.w3.org/2000/svg"
   version="1.1"
   width="602.81891"
   height="241.61255"
   id="svg3004"
   xml:space="preserve"><metadata
     id="metadata3010"><rdf:RDF><cc:Work
         rdf:about=""><dc:format>image/svg+xml</dc:format><dc:type
           rdf:resource="http://purl.org/dc/dcmitype/StillImage" /><dc:title></dc:title></cc:Work></rdf:RDF></metadata><defs
     id="defs3008" /><g
     transform="matrix(1.25,0,0,-1.25,0,241.61255)"
     id="g3012"><g
       id="g3014"><path
         d="m 3.543,190.325 365.297,0 0,-144.156 -365.297,0 0,144.156 z"
         id="path3016"
         style="fill:#858585;fill-opacity:1;fill-rule:nonzero;stroke:none" /><path
         d="m 0.398,192.892 365.844,0 0,-144.16 -365.844,0 0,144.16 z"
         id="path3018"
         style="fill:#c8c8c8;fill-opacity:1;fill-rule:nonzero;stroke:#000000;stroke-width:0.80000001;stroke-linecap:butt;stroke-linejoin:miter;stroke-miterlimit:4;stroke-opacity:1;stroke-dasharray:none" /><g
         transform="matrix(0,-1,-1,0,0,193.29004)"
         id="g3020"><path
           d="m 67.43,-136.562 11.199,0 0,-44 -11.199,0 0,44 z"
           id="path3022"
           style="fill:#ffffff;fill-opacity:1;fill-rule:nonzero;stroke:#000000;stroke-width:0.80000001;stroke-linecap:butt;stroke-linejoin:miter;stroke-miterlimit:4;stroke-opacity:1;stroke-dasharray:none" /></g><g
         transform="matrix(1,0,0,-1,0,193.29004)"
         id="g3024"><path
           d="m 82.758,120.082 11.199,0 0,44 -11.199,0 0,-44 z"
           id="path3026"
           style="fill:#ffffff;fill-opacity:1;fill-rule:nonzero;stroke:#000000;stroke-width:0.80000001;stroke-linecap:butt;stroke-linejoin:miter;stroke-miterlimit:4;stroke-opacity:1;stroke-dasharray:none" /></g><path
         d="m 59.039,32.622 62.047,0 0,-32.621 -62.047,0 0,32.621 z"
         id="path3028"
         style="fill:#858585;fill-opacity:1;fill-rule:evenodd;stroke:none" /><path
         d="m 56.617,35.048 62.047,0 0,-32.625 -62.047,0 0,32.625 z"
         id="path3030"
         style="fill:#cecece;fill-opacity:1;fill-rule:evenodd;stroke:#000000;stroke-width:0.40062299;stroke-linecap:butt;stroke-linejoin:miter;stroke-miterlimit:4;stroke-opacity:1;stroke-dasharray:none" /><text
         transform="matrix(1,0,0,-1,66.34592,14.156296)"
         id="text3032"><tspan
           x="0 8.9098568 16.008898 21.345198 29.357658 36.456699"
           y="0"
           id="tspan3034"
           style="font-size:16.02492332px;font-variant:normal;font-weight:normal;writing-mode:lr-tb;fill:#000000;fill-opacity:1;fill-rule:nonzero;stroke:none;font-family:Times New Roman;-inkscape-font-specification:TimesNewRomanPSMT">Server</tspan></text>
<g
         transform="matrix(0,-1,-1,0,0,193.29004)"
         id="g3036"><path
           d="m 27.148,-137.137 11.199,0 0,-44 -11.199,0 0,44 z"
           id="path3038"
           style="fill:#ffffff;fill-opacity:1;fill-rule:nonzero;stroke:#000000;stroke-width:0.80000001;stroke-linecap:butt;stroke-linejoin:miter;stroke-miterlimit:4;stroke-opacity:1;stroke-dasharray:none" /></g><g
         transform="matrix(0,-1,-1,0,0,193.29004)"
         id="g3040"><path
           d="m 107.711,-137.137 11.199,0 0,-44 -11.199,0 0,44 z"
           id="path3042"
           style="fill:#ffffff;fill-opacity:1;fill-rule:nonzero;stroke:#000000;stroke-width:0.80000001;stroke-linecap:butt;stroke-linejoin:miter;stroke-miterlimit:4;stroke-opacity:1;stroke-dasharray:none" /></g><path
         d="m 22.109,172.017 121.039,0 0,-101.629 -121.039,0 0,101.629 z"
         id="path3044"
         style="fill:#ffffff;fill-opacity:1;fill-rule:nonzero;stroke:#000000;stroke-width:0.80000001;stroke-linecap:butt;stroke-linejoin:miter;stroke-miterlimit:4;stroke-opacity:1;stroke-dasharray:none" /><text
         transform="matrix(1,0,0,-1,51.305575,111.51839)"
         id="text3046"><tspan
           x="0 11.552 18.639999 23.072001 30.16 40.816002 47.903999 55.903999 60.335999 67.424004"
           y="0"
           id="tspan3048"
           style="font-size:16px;font-variant:normal;font-weight:normal;writing-mode:lr-tb;fill:#000000;fill-opacity:1;fill-rule:nonzero;stroke:none;font-family:Times New Roman;-inkscape-font-specification:TimesNewRomanPSMT">DataCenter</tspan></text>
<text
         transform="matrix(0,1,1,0,16.834872,101.61377)"
         id="text3050"><tspan
           x="0 10.6726 15.111505 19.550409 26.64945 34.661911"
           y="0"
           id="tspan3052"
           style="font-size:16.02492523px;font-variant:normal;font-weight:normal;writing-mode:lr-tb;fill:#000000;fill-opacity:1;fill-rule:nonzero;stroke:none;font-family:Times New Roman;-inkscape-font-specification:TimesNewRomanPSMT">Client</tspan></text>
<g
         transform="matrix(0,-1,-1,0,0,193.29004)"
         id="g3054"><path
           d="m 27.148,-298.84 11.199,0 0,-44 -11.199,0 0,44 z"
           id="path3056"
           style="fill:#ffffff;fill-opacity:1;fill-rule:nonzero;stroke:#000000;stroke-width:0.80000001;stroke-linecap:butt;stroke-linejoin:miter;stroke-miterlimit:4;stroke-opacity:1;stroke-dasharray:none" /></g><path
         d="m 176.906,176.841 136,0 0,-32 -136,0 0,32 z"
         id="path3058"
         style="fill:#ffffff;fill-opacity:1;fill-rule:nonzero;stroke:#000000;stroke-width:0.80000001;stroke-linecap:butt;stroke-linejoin:miter;stroke-miterlimit:4;stroke-opacity:1;stroke-dasharray:none" /><text
         transform="matrix(1,0,0,-1,187.75596,155.11493)"
         id="text3060"><tspan
           x="0 10.656 17.743999 23.968 31.056 36.383999 44.383999 51.472 55.903999 60.335999 68.335999 76.335999 82.559998 93.120003 97.552002 104.64"
           y="0"
           id="tspan3062"
           style="font-size:16px;font-variant:normal;font-weight:normal;writing-mode:lr-tb;fill:#000000;fill-opacity:1;fill-rule:nonzero;stroke:none;font-family:Times New Roman;-inkscape-font-specification:TimesNewRomanPSMT">ReservationsView</tspan></text>
<g
         transform="matrix(0,-1,-1,0,0,193.29004)"
         id="g3064"><path
           d="m 67.43,-298.262 11.199,0 0,-44 -11.199,0 0,44 z"
           id="path3066"
           style="fill:#ffffff;fill-opacity:1;fill-rule:nonzero;stroke:#000000;stroke-width:0.80000001;stroke-linecap:butt;stroke-linejoin:miter;stroke-miterlimit:4;stroke-opacity:1;stroke-dasharray:none" /></g><path
         d="m 176.906,136.841 136,0 0,-32 -136,0 0,32 z"
         id="path3068"
         style="fill:#ffffff;fill-opacity:1;fill-rule:nonzero;stroke:#000000;stroke-width:0.80000001;stroke-linecap:butt;stroke-linejoin:miter;stroke-miterlimit:4;stroke-opacity:1;stroke-dasharray:none" /><text
         transform="matrix(1,0,0,-1,214.59257,116.33777)"
         id="text3070"><tspan
           x="0 14.224 21.312 29.312 39.888 44.32 51.408001"
           y="0"
           id="tspan3072"
           style="font-size:16px;font-variant:normal;font-weight:normal;writing-mode:lr-tb;fill:#000000;fill-opacity:1;fill-rule:nonzero;stroke:none;font-family:Times New Roman;-inkscape-font-specification:TimesNewRomanPSMT">MapView</tspan></text>
<g
         transform="matrix(0,-1,-1,0,0,193.29004)"
         id="g3074"><path
           d="m 107.711,-298.84 11.199,0 0,-44 -11.199,0 0,44 z"
           id="path3076"
           style="fill:#ffffff;fill-opacity:1;fill-rule:nonzero;stroke:#000000;stroke-width:0.80000001;stroke-linecap:butt;stroke-linejoin:miter;stroke-miterlimit:4;stroke-opacity:1;stroke-dasharray:none" /></g><path
         d="m 176.906,96.841 136,0 0,-32 -136,0 0,32 z"
         id="path3078"
         style="fill:#ffffff;fill-opacity:1;fill-rule:nonzero;stroke:#000000;stroke-width:0.80000001;stroke-linecap:butt;stroke-linejoin:miter;stroke-miterlimit:4;stroke-opacity:1;stroke-dasharray:none" /><text
         transform="matrix(1,0,0,-1,193.30088,76.050017)"
         id="text3080"><tspan
           x="0 11.552 18.639999 25.728001 33.728001 41.728001 48.816002 56.816002 63.903999 71.903999 82.528 86.959999 94.047997"
           y="0"
           id="tspan3082"
           style="font-size:16px;font-variant:normal;font-weight:normal;writing-mode:lr-tb;fill:#000000;fill-opacity:1;fill-rule:nonzero;stroke:none;font-family:Times New Roman;-inkscape-font-specification:TimesNewRomanPSMT">OccupancyView</tspan></text>
<g
         transform="matrix(0,-1,-1,0,0,193.29004)"
         id="g3084"><path
           d="m 67.43,-356.957 11.199,0 0,-54.07 -11.199,0 0,54.07 z"
           id="path3086"
           style="fill:#ffffff;fill-opacity:1;fill-rule:nonzero;stroke:#000000;stroke-width:0.80000001;stroke-linecap:butt;stroke-linejoin:miter;stroke-miterlimit:4;stroke-opacity:1;stroke-dasharray:none" /></g><path
         d="m 404.949,135.497 77.305,0 0,-32.621 -77.305,0 0,32.621 z"
         id="path3088"
         style="fill:#858585;fill-opacity:1;fill-rule:evenodd;stroke:none" /><path
         d="m 402.527,137.923 77.102,0 0,-32.625 -77.102,0 0,32.625 z"
         id="path3090"
         style="fill:#cecece;fill-opacity:1;fill-rule:evenodd;stroke:#000000;stroke-width:0.40062299;stroke-linecap:butt;stroke-linejoin:miter;stroke-miterlimit:4;stroke-opacity:1;stroke-dasharray:none" /><text
         transform="matrix(1,0,0,-1,412.25554,117.03329)"
         id="text3092"><tspan
           x="0 10.672599 17.771639 25.784101 33.796562 38.235466 45.334507 52.433548"
           y="0"
           id="tspan3094"
           style="font-size:16.02492332px;font-variant:normal;font-weight:normal;writing-mode:lr-tb;fill:#000000;fill-opacity:1;fill-rule:nonzero;stroke:none;font-family:Times New Roman;-inkscape-font-specification:TimesNewRomanPSMT">Benutzer</tspan></text>
<g
         transform="matrix(0,1,1,0,0,193.29004)"
         id="g3096"><path
           d="m -4.156,330.188 -136,0 0,32 136,0 0,-32 z"
           id="path3098"
           style="fill:#ffffff;fill-opacity:1;fill-rule:nonzero;stroke:#000000;stroke-width:0.80000001;stroke-linecap:butt;stroke-linejoin:miter;stroke-miterlimit:4;stroke-opacity:1;stroke-dasharray:none" /></g><text
         transform="matrix(0,1,1,0,351.91237,100.81317)"
         id="text3100"><tspan
           x="0 11.552 23.104"
           y="0"
           id="tspan3102"
           style="font-size:16px;font-variant:normal;font-weight:normal;writing-mode:lr-tb;fill:#000000;fill-opacity:1;fill-rule:nonzero;stroke:none;font-family:Times New Roman;-inkscape-font-specification:TimesNewRomanPSMT">DOM</tspan></text>
</g></g></svg>