<?xml version="1.0" encoding="UTF-8" standalone="no"?>
<!-- Generator: Adobe Illustrator 17.1.0, SVG Export Plug-In . SVG Version: 6.00 Build 0)  -->

<svg
   xmlns:dc="http://purl.org/dc/elements/1.1/"
   xmlns:cc="http://creativecommons.org/ns#"
   xmlns:rdf="http://www.w3.org/1999/02/22-rdf-syntax-ns#"
   xmlns:svg="http://www.w3.org/2000/svg"
   xmlns="http://www.w3.org/2000/svg"
   xmlns:sodipodi="http://sodipodi.sourceforge.net/DTD/sodipodi-0.dtd"
   xmlns:inkscape="http://www.inkscape.org/namespaces/inkscape"
   version="1.1"
   id="Layer_1"
   x="0px"
   y="0px"
   viewBox="0 0 393.5814 100"
   enable-background="new 0 0 278.4 70.7"
   xml:space="preserve"
   inkscape:version="0.48.5 r10040"
   width="100%"
   height="100%"
   sodipodi:docname="jQuery-logo.svg"><metadata
     id="metadata83"><rdf:RDF><cc:Work
         rdf:about=""><dc:format>image/svg+xml</dc:format><dc:type
           rdf:resource="http://purl.org/dc/dcmitype/StillImage" /></cc:Work></rdf:RDF></metadata><defs
     id="defs81" /><sodipodi:namedview
     pagecolor="#ffffff"
     bordercolor="#666666"
     borderopacity="1"
     objecttolerance="10"
     gridtolerance="10"
     guidetolerance="10"
     inkscape:pageopacity="0"
     inkscape:pageshadow="2"
     inkscape:window-width="1778"
     inkscape:window-height="993"
     id="namedview79"
     showgrid="false"
     inkscape:zoom="3.3831402"
     inkscape:cx="158.14315"
     inkscape:cy="43.40477"
     inkscape:window-x="0"
     inkscape:window-y="0"
     inkscape:window-maximized="0"
     inkscape:current-layer="Layer_1"
     fit-margin-top="0"
     fit-margin-left="0"
     fit-margin-right="0"
     fit-margin-bottom="0" /><g
     id="g3"
     transform="matrix(1.4144272,0,0,1.4144272,-0.01751854,0)"><g
       id="g5"><path
         d="m 107.2,63 c 0,0.6 -0.1,1.2 -0.1,1.9 l 2.5,-4.5 -0.3,-1.5 2.5,-0.4 0.9,6.3 1.1,-3.9 c 0.1,-0.4 0.1,-0.7 0.1,-1 0,-0.3 0,-0.6 -0.1,-1 l 2.6,-0.5 c 0.1,0.5 0.2,1 0.1,1.5 0,0.6 -0.2,1.3 -0.6,2.4 l -2.1,5.7 h -3.1 L 110,63.8 107.6,68 h -3 c 0.1,-3.9 0,-6.4 -0.3,-9 l 2.6,-0.4 c 0.3,1.3 0.4,2.8 0.3,4.4 z"
         id="path7"
         inkscape:connector-curvature="0"
         style="fill:#0769ad" /><path
         d="m 123.4,60.8 c -1.2,0.6 -1.7,0.9 -2.8,1.6 l -1.2,5.5 h -2.7 l 1.9,-9.1 2.4,-0.4 -0.1,1.3 c 0.9,-0.5 1.7,-0.9 2.5,-1.3 l 0,2.4 z"
         id="path9"
         inkscape:connector-curvature="0"
         style="fill:#0769ad" /><path
         d="m 125,58.8 2.8,-0.4 -2,9.5 h -2.7 l 1.9,-9.1 z m 0.9,-4.1 2.8,-0.4 -0.6,2.9 -2.8,0.4 0.6,-2.9 z"
         id="path11"
         inkscape:connector-curvature="0"
         style="fill:#0769ad" /><path
         d="m 132.8,60.7 -1,4.6 c 0,0.1 0,0.2 0,0.2 0,0.1 0.1,0.2 0.3,0.2 0.5,0 1,-0.2 1.5,-0.4 l 0.5,1.9 c -0.8,0.4 -1.9,0.8 -3,0.8 -1.4,0 -2.1,-0.7 -2,-1.8 0,-0.1 0,-0.3 0.1,-0.4 l 1.1,-5.2 h -1.4 l 0.5,-2.2 h 1.4 l 0.5,-2.2 2.8,-0.4 -0.5,2.6 h 2.2 l -0.6,2.2 h -2.4 z"
         id="path13"
         inkscape:connector-curvature="0"
         style="fill:#0769ad" /><path
         d="m 136,61.9 c 0.5,-2.1 1.5,-3.5 4.4,-3.5 1.8,0 3.1,0.8 3,2.3 -0.1,1.8 -1,2.7 -3.3,3.3 -1.1,0.3 -1.2,0.3 -2,0.6 l -0.1,0.6 c -0.1,0.3 0,0.7 0.5,0.7 1,0 2.4,-0.5 3.7,-1 l 0.4,1.9 c -1.2,0.7 -3,1.3 -4.6,1.3 -1.9,0 -2.7,-0.8 -2.7,-2.4 0,-0.3 0.1,-0.7 0.2,-1.1 l 0.5,-2.7 z m 4.9,-0.9 c 0,-0.3 -0.3,-0.5 -0.8,-0.5 -1,0 -1.3,0.6 -1.4,1.3 l -0.1,0.7 c 0.5,-0.1 0.7,-0.2 1.2,-0.3 0.7,-0.3 1.1,-0.6 1.1,-1.2 z"
         id="path15"
         inkscape:connector-curvature="0"
         style="fill:#0769ad" /><path
         d="m 150.4,54.8 2.8,-0.4 -2.8,13.5 h -2.7 l 2.7,-13.1 z"
         id="path17"
         inkscape:connector-curvature="0"
         style="fill:#0769ad" /><path
         d="m 153.5,61.9 c 0.5,-2.1 1.5,-3.5 4.4,-3.5 1.8,0 3.1,0.8 3,2.3 -0.1,1.8 -1,2.7 -3.3,3.3 -1.1,0.3 -1.2,0.3 -2,0.6 l -0.1,0.6 c -0.1,0.3 0,0.7 0.5,0.7 1,0 2.4,-0.5 3.7,-1 l 0.4,1.9 c -1.2,0.7 -3,1.3 -4.6,1.3 -1.9,0 -2.7,-0.8 -2.7,-2.4 0,-0.3 0.1,-0.7 0.2,-1.1 l 0.5,-2.7 z m 4.9,-0.9 c 0,-0.3 -0.3,-0.5 -0.8,-0.5 -1,0 -1.3,0.6 -1.4,1.3 l -0.1,0.7 c 0.5,-0.1 0.7,-0.2 1.2,-0.3 0.7,-0.3 1.1,-0.6 1.1,-1.2 z"
         id="path19"
         inkscape:connector-curvature="0"
         style="fill:#0769ad" /><path
         d="m 161.2,67.5 0.6,-2 c 0.7,0.2 1.5,0.5 2.5,0.5 0.9,0 1,-0.3 1.1,-0.7 0.1,-0.4 -0.2,-0.6 -1.2,-1.2 -1.9,-1 -2,-1.7 -1.7,-3.1 0.4,-2 1,-2.5 3.6,-2.5 0.9,0 2,0.2 2.8,0.4 l -0.5,2 c -0.7,-0.2 -1.7,-0.3 -2.3,-0.3 -0.8,0 -0.9,0.1 -1,0.6 -0.1,0.4 0,0.5 0.9,1 2.1,1.1 2.4,1.5 2.1,3 -0.5,2.1 -1.1,2.9 -3.9,2.9 -1,0 -2.2,-0.3 -3,-0.6 z"
         id="path21"
         inkscape:connector-curvature="0"
         style="fill:#0769ad" /><path
         d="m 168.9,67.5 0.6,-2 c 0.7,0.2 1.5,0.5 2.5,0.5 0.9,0 1,-0.3 1.1,-0.7 0.1,-0.4 -0.2,-0.6 -1.2,-1.2 -1.9,-1 -2,-1.7 -1.7,-3.1 0.4,-2 1,-2.5 3.6,-2.5 0.9,0 2,0.2 2.8,0.4 l -0.5,2 c -0.7,-0.2 -1.7,-0.3 -2.3,-0.3 -0.8,0 -0.9,0.1 -1,0.6 -0.1,0.4 0,0.5 0.9,1 2.1,1.1 2.4,1.5 2.1,3 -0.5,2.1 -1.1,2.9 -3.9,2.9 -1,0 -2.2,-0.3 -3,-0.6 z"
         id="path23"
         inkscape:connector-curvature="0"
         style="fill:#0769ad" /><path
         d="m 176.3,70 1.5,-2.1 h -1 l 0.7,-3.2 h 2.7 l -0.7,3.4 -2.2,2.6 -1,-0.7 z"
         id="path25"
         inkscape:connector-curvature="0"
         style="fill:#0769ad" /><path
         d="m 191,67.9 0,-0.8 c -0.7,0.6 -1.7,1 -3,1 -2,0 -2.5,-1.2 -2,-3.3 l 0.5,-2.5 c 0.5,-2.2 1.1,-3.9 5,-3.9 0.3,0 0.9,0 1.1,0.1 l 0.8,-3.7 2.8,-0.4 -2.8,13.5 H 191 z m -2.5,-2.8 c -0.1,0.5 0,0.7 0.5,0.7 1,0 1.7,-0.5 2.2,-1 l 0.9,-4.1 c -0.3,-0.1 -0.7,-0.1 -1,-0.1 -1.4,0 -1.7,0.7 -1.9,1.6 l -0.7,2.9 z"
         id="path27"
         inkscape:connector-curvature="0"
         style="fill:#0769ad" /><path
         d="m 195.8,65 c 0,-0.2 0,-0.4 0.1,-0.7 l 0.5,-2.2 c 0.5,-2.4 1.7,-3.8 5,-3.8 2.5,0 3.6,1.4 3.5,3.1 0,0.2 0,0.4 -0.1,0.7 l -0.5,2.2 c -0.5,2.2 -1.6,3.8 -5,3.8 -2.4,0 -3.6,-1.4 -3.5,-3.1 z m 6.3,-3.3 c 0,-0.7 -0.4,-1.1 -1.3,-1.1 -1,0 -1.6,0.5 -1.8,1.4 l -0.5,2.3 c 0,0.1 0,0.3 -0.1,0.4 0,0.7 0.4,1.1 1.3,1.1 1,0 1.6,-0.5 1.8,-1.4 l 0.5,-2.3 c 0.1,-0.2 0.1,-0.3 0.1,-0.4 z"
         id="path29"
         inkscape:connector-curvature="0"
         style="fill:#0769ad" /><path
         d="m 221.3,61.6 c 0,-0.1 0,-0.2 0,-0.3 0,-0.2 -0.1,-0.3 -0.4,-0.3 -0.5,0 -1.7,0.5 -2.5,0.9 l -1.3,6 h -2.7 l 1.3,-6.3 c 0,-0.1 0,-0.2 0,-0.3 0,-0.2 -0.1,-0.3 -0.4,-0.3 -0.5,0 -1.7,0.5 -2.4,0.9 l -1.3,6 h -2.7 l 1.9,-9.1 2.4,-0.4 -0.1,1 c 1.5,-0.7 2.6,-1.1 3.7,-1.1 0.9,0 1.4,0.4 1.6,1.1 1.4,-0.8 2.7,-1.1 3.8,-1.1 1.2,0 1.7,0.7 1.6,1.9 0,0.3 0,0.7 -0.1,1.1 l -1.4,6.5 H 220 l 1.3,-6.2 z"
         id="path31"
         inkscape:connector-curvature="0"
         style="fill:#0769ad" /><path
         d="m 225.1,65 c 0,-0.2 0,-0.4 0.1,-0.7 l 0.5,-2.2 c 0.5,-2.4 1.7,-3.8 5,-3.8 2.5,0 3.6,1.4 3.5,3.1 0,0.2 0,0.4 -0.1,0.7 l -0.5,2.2 c -0.5,2.2 -1.6,3.8 -5,3.8 -2.4,0 -3.6,-1.4 -3.5,-3.1 z m 6.3,-3.3 c 0,-0.7 -0.4,-1.1 -1.3,-1.1 -1,0 -1.6,0.5 -1.8,1.4 l -0.5,2.3 c 0,0.1 0,0.3 -0.1,0.4 0,0.7 0.4,1.1 1.3,1.1 1,0 1.6,-0.5 1.8,-1.4 l 0.5,-2.3 c 0.1,-0.2 0.1,-0.3 0.1,-0.4 z"
         id="path33"
         inkscape:connector-curvature="0"
         style="fill:#0769ad" /><path
         d="m 241.2,60.8 c -1.2,0.6 -1.7,0.9 -2.8,1.6 l -1.2,5.5 h -2.7 l 1.9,-9.1 2.4,-0.4 -0.1,1.3 c 0.9,-0.5 1.7,-0.9 2.5,-1.3 l 0,2.4 z"
         id="path35"
         inkscape:connector-curvature="0"
         style="fill:#0769ad" /><path
         d="m 241.9,61.9 c 0.5,-2.1 1.5,-3.5 4.4,-3.5 1.8,0 3.1,0.8 3,2.3 -0.1,1.8 -1,2.7 -3.3,3.3 -1.1,0.3 -1.2,0.3 -2,0.6 l -0.1,0.6 c -0.1,0.3 0,0.7 0.5,0.7 1,0 2.4,-0.5 3.7,-1 l 0.4,1.9 c -1.2,0.7 -3,1.3 -4.6,1.3 -1.9,0 -2.7,-0.8 -2.7,-2.4 0,-0.3 0.1,-0.7 0.2,-1.1 l 0.5,-2.7 z m 4.9,-0.9 c 0,-0.3 -0.3,-0.5 -0.8,-0.5 -1,0 -1.3,0.6 -1.4,1.3 l -0.1,0.7 c 0.5,-0.1 0.7,-0.2 1.2,-0.3 0.7,-0.3 1,-0.6 1.1,-1.2 z"
         id="path37"
         inkscape:connector-curvature="0"
         style="fill:#0769ad" /><path
         d="m 250.4,64.7 h 2.7 l -0.7,3.2 h -2.7 l 0.7,-3.2 z"
         id="path39"
         inkscape:connector-curvature="0"
         style="fill:#0769ad" /></g></g><path
     d="m 4.6500906,18.953321 c -6.5063654,9.19378 -5.6577084,21.35785 -0.707213,31.1174 0,0.28289 0.141442,0.56577 0.282885,0.84866 0,0.14144 0.141443,0.28288 0.282886,0.42432 0,0.14145 0.141442,0.14145 0.141442,0.28289 0.141443,0.14144 0.141443,0.28289 0.282886,0.42433 0.141442,0.28288 0.282885,0.56577 0.424328,0.84865 0.141443,0.14145 0.141443,0.28289 0.282885,0.42433 0.141443,0.28289 0.424328,0.56577 0.565771,0.84866 0.141443,0.14144 0.141443,0.28288 0.282886,0.42433 0.282885,0.42433 0.56577,0.70721 0.848656,1.13154 0,0 0,0 0,0 0,0 0.141443,0.14144 0.141443,0.14144 0.282885,0.28289 0.424328,0.70722 0.707213,0.9901 0.141443,0.14144 0.141443,0.28289 0.282886,0.28289 0.282885,0.28288 0.424328,0.56577 0.707213,0.84865 0.141443,0.14145 0.141443,0.14145 0.282886,0.28289 0.282885,0.42433 0.5657714,0.70721 0.9900994,0.9901 0,0 0,0 0,0 0,0 0,0 0,0 0.282885,0.28288 0.565771,0.70721 0.990099,0.9901 0.141442,0.14144 0.141442,0.14144 0.282885,0.28288 0.282886,0.28289 0.424328,0.42433 0.707214,0.70722 0.141443,0.14144 0.141443,0.14144 0.282885,0.28288 0.282886,0.28289 0.707214,0.56577 0.990099,0.9901 0,0 0,0 0,0 0,0 0.141443,0.14144 0.141443,0.14144 0.282885,0.28289 0.565771,0.56577 0.990099,0.84866 0.141443,0.14144 0.282885,0.14144 0.424328,0.28288 0.282886,0.14145 0.565771,0.42433 0.848656,0.56578 0.141443,0.14144 0.282886,0.14144 0.424329,0.28288 0.282885,0.28289 0.56577,0.42433 0.848656,0.56577 0.141443,0.14144 0.141443,0.14144 0.282885,0.28289 0,0 0,0 0.141443,0 0.282886,0.14144 0.565771,0.42432 0.848656,0.56577 0.141443,0.14144 0.282886,0.14144 0.424329,0.28288 0.424328,0.28289 0.848656,0.56577 1.272984,0.84866 0.141443,0 0.282885,0.14144 0.424328,0.14144 0.282886,0.14144 0.707214,0.42433 0.990099,0.56577 0.141443,0.14145 0.424328,0.14145 0.565771,0.28289 0.282885,0.14144 0.424328,0.28288 0.707214,0.42433 0,0 0.141442,0 0.141442,0.14144 0.141443,0 0.141443,0.14144 0.282886,0.14144 0.424328,0.14144 0.707213,0.42433 1.131542,0.56577 0.141442,0 0.141442,0 0.282885,0.14145 0.424328,0.14144 0.848656,0.42432 1.272984,0.56577 0.141443,0 0.141443,0.14144 0.282886,0.14144 0.424328,0.14144 0.848656,0.28288 1.272984,0.42433 0,0 0.141443,0 0.141443,0 0.424328,0.14144 0.990099,0.28288 1.414427,0.42433 0.141443,0 0.282886,0.14144 0.282886,0.14144 0.424328,0.14144 0.990099,0.28288 1.414427,0.42433 31.117398,5.65771 40.169732,-18.67044 40.169732,-18.67044 -7.637907,9.90099 -21.074965,12.44696 -33.946253,9.6181 -0.424328,-0.14144 -0.990099,-0.28288 -1.414427,-0.42433 -0.141442,0 -0.282885,0 -0.282885,-0.14144 -0.424328,-0.14144 -0.990099,-0.28288 -1.414427,-0.42433 0,0 -0.141443,0 -0.141443,-0.14144 -0.424328,-0.14144 -0.848656,-0.28288 -1.272985,-0.42433 -0.141442,0 -0.282885,-0.14144 -0.282885,-0.14144 -0.424328,-0.14144 -0.848656,-0.42433 -1.272984,-0.56577 -0.141443,0 -0.141443,-0.14144 -0.282886,-0.14144 -0.424328,-0.14145 -0.707213,-0.28289 -1.131542,-0.56577 -0.141442,0 -0.141442,-0.14145 -0.282885,-0.14145 -0.282885,-0.14144 -0.565771,-0.28288 -0.848656,-0.42433 -0.141443,-0.14144 -0.424329,-0.14144 -0.565771,-0.28288 -0.282886,-0.14144 -0.707214,-0.42433 -0.990099,-0.56577 -0.141443,-0.14144 -0.282886,-0.14144 -0.282886,-0.14144 -0.424328,-0.28289 -0.848656,-0.56578 -1.272984,-0.84866 -0.141443,-0.14144 -0.282886,-0.14144 -0.424328,-0.28289 -0.282886,-0.14144 -0.707214,-0.42432 -0.990099,-0.56577 -0.141443,-0.14144 -0.141443,-0.14144 -0.282886,-0.28288 -0.282885,-0.14145 -0.565771,-0.42433 -0.848656,-0.70722 -0.141443,-0.14144 -0.282886,-0.14144 -0.424328,-0.28288 -0.282886,-0.14144 -0.565771,-0.42433 -0.848657,-0.56577 -0.141442,-0.14145 -0.282885,-0.14145 -0.424328,-0.28289 -0.282885,-0.28288 -0.707213,-0.56577 -0.990099,-0.84865 0,0 -0.141442,0 -0.141442,-0.14145 -0.282886,-0.28288 -0.707214,-0.70721 -0.990099,-0.9901 -0.141443,-0.14144 -0.141443,-0.14144 -0.282886,-0.28288 -0.282885,-0.28289 -0.565771,-0.42433 -0.707213,-0.70722 -0.141443,-0.14144 -0.141443,-0.14144 -0.282886,-0.28288 -0.282885,-0.28289 -0.565771,-0.70721 -0.990099,-0.9901 0,0 0,0 0,0 -0.282885,-0.28288 -0.565771,-0.70721 -0.990099,-1.13154 -0.141443,-0.14144 -0.141443,-0.14144 -0.282885,-0.28289 -0.282886,-0.28288 -0.424329,-0.56577 -0.707214,-0.84865 -0.141443,-0.14145 -0.141443,-0.14145 -0.282885,-0.28289 -0.424329,-0.14144 -0.707214,-0.56577 -0.990099,-0.84865 -7.0721364,-9.61811 -9.6181054,-23.05517 -3.9603974,-33.94626"
     id="path41"
     inkscape:connector-curvature="0"
     style="fill:#0769ad" /><path
     d="m 24.593515,11.173971 c -4.66761,6.78925 -4.384725,15.70014 -0.707214,22.77228 0.565771,1.13154 1.272984,2.40453 2.121641,3.39463 0.707213,0.99009 1.414427,2.12164 2.404526,2.97029 0.282885,0.42433 0.707214,0.70722 0.990099,1.13154 0.141443,0.14145 0.141443,0.14145 0.282885,0.28289 0.282886,0.28289 0.707214,0.70721 1.131542,0.9901 0,0 0,0 0,0 0,0 0,0 0,0 0.424328,0.42433 0.848656,0.70721 1.272985,0.9901 0.141442,0.14144 0.141442,0.14144 0.282885,0.28288 0.424328,0.28289 0.848656,0.70722 1.272984,0.9901 0,0 0,0 0,0 0.141443,0.14145 0.424329,0.28289 0.565771,0.42433 0.141443,0 0.141443,0.14144 0.282886,0.14144 0.282885,0.14145 0.707213,0.42433 0.990099,0.56577 0,0 0.141443,0 0.141443,0.14145 0.282885,0.14144 0.56577,0.28288 0.848656,0.42433 0.141443,0 0.141443,0.14144 0.282885,0.14144 0.141443,0.14144 0.424328,0.14144 0.565771,0.28288 0,0 0,0 0.141443,0 0.424328,0.14145 0.848656,0.42433 1.272984,0.56577 0.141443,0 0.141443,0.14145 0.282886,0.14145 0.282885,0.14144 0.707213,0.28288 0.990099,0.42433 0.141443,0 0.282885,0.14144 0.424328,0.14144 0.282885,0.14144 0.565771,0.28288 0.990099,0.28288 0.141443,0 0.282885,0.14145 0.424328,0.14145 0.424328,0.14144 0.848656,0.28288 1.414427,0.42432 24.045262,3.9604 29.561528,-14.5686 29.561528,-14.5686 -4.950495,7.21358 -14.710042,10.60821 -25.035361,7.9208 -0.424328,-0.14145 -0.848656,-0.28289 -1.414427,-0.42433 -0.141443,0 -0.282885,-0.14144 -0.424328,-0.14144 -0.282885,-0.14145 -0.707214,-0.14145 -0.990099,-0.28289 -0.141443,0 -0.282886,-0.14144 -0.424328,-0.14144 -0.282886,-0.14145 -0.707214,-0.28289 -0.990099,-0.42433 -0.141443,0 -0.141443,-0.14144 -0.282886,-0.14144 -0.424328,-0.14145 -0.848656,-0.42433 -1.272984,-0.56577 -0.141443,-0.14145 -0.424328,-0.28289 -0.565771,-0.28289 -0.141443,0 -0.282885,-0.14144 -0.424328,-0.14144 -0.282886,-0.14145 -0.565771,-0.28289 -0.848656,-0.42433 0,0 -0.141443,0 -0.141443,-0.14144 -0.282886,-0.14145 -0.707214,-0.42433 -0.990099,-0.56577 -0.141443,0 -0.141443,-0.14145 -0.282886,-0.14145 -0.141442,-0.14144 -0.424328,-0.28288 -0.565771,-0.42433 -0.424328,-0.28288 -0.848656,-0.56577 -1.272984,-0.99009 -0.141443,-0.14145 -0.141443,-0.14145 -0.282885,-0.28289 -4.526167,-3.53607 -8.062235,-8.48656 -9.759548,-14.00283 -1.838755,-5.79915 -1.414427,-12.16407 1.697313,-17.3974508"
     id="path43"
     inkscape:connector-curvature="0"
     style="fill:#0769ad" /><path
     d="m 41.425198,5.3748202 c -2.687412,4.1018403 -2.970297,9.0523408 -1.131542,13.5785008 1.980198,4.80905 6.082037,8.48657 10.89109,10.18388 0.141442,0.14144 0.424328,0.14144 0.56577,0.14144 0.141443,0 0.141443,0 0.282886,0.14144 0.282885,0.14145 0.565771,0.14145 0.848656,0.28289 13.295616,2.54597 16.831684,-6.78925 17.821783,-8.20368 -3.11174,4.52617 -8.486563,5.65771 -14.992928,4.10184 -0.565771,-0.14144 -1.131542,-0.28289 -1.55587,-0.42433 -0.565771,-0.28288 -1.272985,-0.42433 -1.838756,-0.70721 -1.131541,-0.56577 -2.263083,-1.27299 -3.253182,-1.9802 C 43.263953,18.104671 39.586443,9.6181005 43.405396,2.8288502"
     id="path45"
     inkscape:connector-curvature="0"
     style="fill:#0769ad" /><path
     d="m 349.346,24.328151 0.56577,2.26308 c 0.14144,0.56577 -0.28288,1.13154 -0.84865,1.13154"
     id="path47"
     inkscape:connector-curvature="0"
     style="fill:#333333" /><path
     d="m 307.47896,20.509191 c -0.14145,0.56577 -0.28289,1.41443 -0.42433,1.83876 l -4.66761,21.49929 4.80905,-22.63083 0.28289,-0.70722 z"
     id="path49"
     inkscape:connector-curvature="0"
     style="fill:#333333" /><polygon
     points="118.2,31.1 120,24.7 120,24.7 "
     id="polygon51"
     style="fill:#333333"
     transform="matrix(1.4144272,0,0,1.4144272,-0.01751854,0)" /><path
     d="m 349.91177,26.591231 -1.27298,-5.65771 c -0.9901,-4.10184 -3.9604,-5.94059 -10.60821,-5.94059 h -28.00565 c -0.70722,0 -1.27299,0.28288 -1.41443,0.9901 l -10.60821,50.3536 c -0.14144,0.70722 -0.14144,1.13154 -0.14144,1.41443 0.14144,0.28289 1.27299,0.28289 1.9802,0.28289 h 9.75955 c 0.70721,0 1.83875,0 2.12164,-0.14145 0.42433,-0.14144 0.56577,-1.13154 0.70721,-1.69731 l 3.39463,-17.68034 4.24328,-19.66054 c 0.14144,-0.56577 0.70721,-1.13154 1.41443,-1.13154 l 27.72277,0 c 0.42433,0 0.84865,-0.56577 0.70721,-1.13154"
     id="path53"
     inkscape:connector-curvature="0"
     style="fill:#333333" /><path
     d="m 389.37429,6.0820402 c -0.70721,0 -12.30552,0 -12.30552,0 -0.70721,0 -1.41442,0.7072103 -1.83875,1.2729803 L 353.58928,39.038191 c -0.42433,0.56577 -0.84865,0.56577 -0.9901,-0.14144 l -1.55587,-6.9307 c -0.14144,-0.56577 -0.84865,-1.13154 -1.41442,-1.13154 H 335.7675 c -0.70721,0 -0.9901,0.56577 -0.84866,1.13154 l 6.22348,21.78218 c 0.14145,0.56577 0.14145,1.69731 0,2.26308 l -2.97029,11.03254 c -0.14145,0.56577 0.28288,0.84865 0.84865,0.84865 h 13.71995 c 0.70721,0 1.27298,-0.14144 1.41442,-0.84865 l 2.9703,-11.17398 c 0.14144,-0.56577 0.56577,-1.41443 0.9901,-1.9802 L 393.33469,7.2135805 c 0.42432,-0.56577 0.28288,-1.1315403 -0.28289,-1.1315403 l -3.67751,0 z"
     id="path55"
     inkscape:connector-curvature="0"
     style="fill:#333333" /><path
     d="m 244.81983,14.992931 h -12.5884 c -0.70721,0 -1.27298,0.28288 -1.41443,0.84865 l -4.10184,19.37766 -4.10183,18.52899 c -0.14145,0.56577 -0.70722,0.56577 -1.41443,0.56577 h -8.20368 c -8.20368,0 -7.21358,-5.09194 -5.51627,-12.87129 0,-0.14144 5.23339,-25.60113 5.23339,-25.60113 0.14144,-0.56577 -0.28289,-0.84865 -0.9901,-0.84865 h -11.88119 c -0.70722,0 -1.27299,0.28288 -1.41443,0.84865 l -4.80905,25.60113 c -2.40453,13.86139 -2.40453,26.02546 13.5785,26.44979 0.28288,0 25.31825,0 25.31825,0 0.70721,0 1.27298,-0.28288 1.41442,-0.84865 l 5.51627,-25.74258 5.37482,-25.74257 c 0,0 0.28289,-0.56577 0,-0.56577 z"
     id="path57"
     inkscape:connector-curvature="0"
     style="fill:#333333" /><path
     d="M 120.06736,14.992931 H 106.6303 c -0.70722,0 -1.27299,0.14144 -1.41443,0.84865 l -2.40453,10.46676 c -0.14144,0.56577 0.28289,1.13155 0.9901,1.13155 h 12.87129 c 0.70721,0 1.27298,-0.56578 1.41443,-1.27299 l 2.26308,-10.6082 c 0,0 0.28289,-0.56577 -0.28288,-0.56577 z"
     id="path59"
     inkscape:connector-curvature="0"
     style="fill:#333333" /><path
     d="m 102.95279,30.834511 c -0.70722,0 -1.27299,0.56577 -1.41443,1.13154 l -1.838761,8.06224 -4.10184,18.52899 c 0,0 -2.121644,9.75955 -2.404524,10.46676 0,0 -1.83876,7.07214 -6.082038,6.78926 -1.9802,-0.14145 -4.243283,-0.56578 -4.243283,-0.56578 h 0 c -1.272984,-0.42432 -1.272984,0.84866 -1.414427,1.55587 l -2.687411,11.45686 c -0.141443,0.56578 0.282885,1.13155 0.848656,1.27299 0,0 5.799155,0.84866 9.900983,0.84866 h 0.70722 c 10.042435,0 15.417265,-5.9406 18.811885,-22.06507 l 3.9604,-18.81188 3.67751,-17.39745 c 0.14144,-0.56578 -0.28289,-1.27299 -0.84866,-1.27299"
     id="path61"
     inkscape:connector-curvature="0"
     style="fill:#333333" /><path
     d="m 276.503,14.851481 c -22.63083,0 -28.00566,14.00283 -30.97595,27.72278 -2.9703,14.14427 -2.68742,25.31824 20.65063,25.31824 h 0.84866 c 9.33522,0 20.50919,0 20.50919,0 0.56577,0 1.27299,-0.56577 1.41443,-1.27298 l 2.26308,-8.91089 c 0.14145,-0.56577 -0.28288,-0.84866 -0.99009,-0.84866 h -21.07497 c -7.63791,0 -10.32532,-2.40453 -10.04243,-7.63791 0,-0.56577 0.70721,-2.12164 1.27298,-2.12164 h 32.39038 c 1.41443,0 1.41443,-0.84865 1.41443,-0.84865 3.53607,-14.71005 3.67751,-31.40029 -17.68034,-31.40029 m 5.9406,22.20651 c 0,0.70721 -2.26309,0.56577 -2.26309,0.56577 l -17.5389,-0.14144 c -0.56577,0 -0.84865,-0.84866 -0.84865,-1.41443 0,0 0,-0.70721 0.14144,-0.84865 1.41443,-4.66761 5.37482,-7.35503 11.88119,-7.35503 7.21358,0 8.76945,3.53607 8.76945,7.63791"
     id="path63"
     inkscape:connector-curvature="0"
     style="fill:#333333" /><path
     d="m 178.90753,53.323901 c 0,0 6.36492,-15.41725 7.77935,-24.1867 C 188.66707,17.256011 182.72648,0 159.67132,0 136.89904,0 126.99805,16.407351 123.1791,34.370581 c -3.81896,17.96322 1.13154,33.66337 23.90381,33.52192 l 34.65347,0 c 0.70721,0 1.27298,-0.56577 1.41443,-1.13154 l 2.97029,-11.17397 c 0.14145,-0.56577 -0.28288,-1.13155 -0.84865,-1.13155 l -2.82886,0 -2.82885,0 c -0.56577,0 -0.84866,-0.42432 -0.84866,-0.84865 0.14145,0 0.14145,-0.14144 0.14145,-0.28289 m -11.88119,-9.33522 -2.54597,8.91089 c -0.14144,0.56578 -0.84866,0.9901 -1.55587,0.9901 h -13.43706 c -10.18388,0 -12.72984,-7.92079 -10.18388,-19.66053 2.54597,-12.02263 7.35503,-19.37766 17.39746,-20.22631 13.71994,-0.9901 16.5488,8.628 13.15417,19.80198 l -2.82885,10.18387 z"
     id="path65"
     inkscape:connector-curvature="0"
     style="fill:#333333" /><g
     id="g67"
     transform="translate(-6.1515214,978.0898)" /><g
     id="g69"
     transform="translate(-6.1515214,978.0898)" /><g
     id="g71"
     transform="translate(-6.1515214,978.0898)" /><g
     id="g73"
     transform="translate(-6.1515214,978.0898)" /><g
     id="g75"
     transform="translate(-6.1515214,978.0898)" /><g
     id="g77"
     transform="translate(-6.1515214,978.0898)" /></svg>