<?xml version="1.0" encoding="UTF-8" standalone="no"?>
<!-- Created with Inkscape (http://www.inkscape.org/) -->

<svg
   xmlns:dc="http://purl.org/dc/elements/1.1/"
   xmlns:cc="http://creativecommons.org/ns#"
   xmlns:rdf="http://www.w3.org/1999/02/22-rdf-syntax-ns#"
   xmlns:svg="http://www.w3.org/2000/svg"
   xmlns="http://www.w3.org/2000/svg"
   version="1.1"
   width="266.71942"
   height="402.39236"
   id="svg4265">
  <defs
     id="defs4267" />
  <metadata
     id="metadata4270">
    <rdf:RDF>
      <cc:Work
         rdf:about="">
        <dc:format>image/svg+xml</dc:format>
        <dc:type
           rdf:resource="http://purl.org/dc/dcmitype/StillImage" />
        <dc:title></dc:title>
      </cc:Work>
    </rdf:RDF>
  </metadata>
  <g
     transform="translate(-253.18853,-214.01449)"
     id="layer1">
    <g
       transform="matrix(1.4814206,0,0,-1.4814206,253.18853,616.40536)"
       id="g4324">
      <g
         id="g4326">
        <path
           d="m 1.918,187.386 175.699,0"
           id="path4328"
           style="fill:none;stroke:#000000;stroke-width:0.40062299;stroke-linecap:butt;stroke-linejoin:miter;stroke-miterlimit:4;stroke-opacity:1;stroke-dasharray:1.602492, 1.602492;stroke-dashoffset:0" />
        <path
           d="m 2.625,228.46 177.418,0 0,-167.117 -177.418,0 0,167.117 z"
           id="path4330"
           style="fill:#858585;fill-opacity:1;fill-rule:nonzero;stroke:none" />
        <path
           d="m 42.797,38.979 0,-23.601 c 0,-8.492 20.656,-15.379 46.133,-15.379 25.48,0 46.136,6.887 46.136,15.379 l 0,23.601"
           id="path4332"
           style="fill:#858585;fill-opacity:1;fill-rule:nonzero;stroke:none" />
        <path
           d="m 135.066,39.128 c 0,-8.492 -20.656,-15.375 -46.136,-15.375 -25.477,0 -46.133,6.883 -46.133,15.375 0,8.496 20.656,15.379 46.133,15.379 25.48,0 46.136,-6.883 46.136,-15.379 z"
           id="path4334"
           style="fill:#858585;fill-opacity:1;fill-rule:nonzero;stroke:none" />
        <path
           d="m 56.105,268.987 62.047,0 0,-32.621 -62.047,0 0,32.621 z"
           id="path4336"
           style="fill:#858585;fill-opacity:1;fill-rule:evenodd;stroke:none" />
        <path
           d="m 0.199,230.882 177.418,0 0,-167.117 -177.418,0 0,167.117 z"
           id="path4338"
           style="fill:#cecece;fill-opacity:1;fill-rule:nonzero;stroke:#000000;stroke-width:0.40062299;stroke-linecap:butt;stroke-linejoin:miter;stroke-miterlimit:4;stroke-opacity:1;stroke-dasharray:none" />
        <path
           d="m 1.918,187.386 175.699,0"
           id="path4340"
           style="fill:none;stroke:#000000;stroke-width:0.40062299;stroke-linecap:butt;stroke-linejoin:miter;stroke-miterlimit:4;stroke-opacity:1;stroke-dasharray:1.602492, 1.602492;stroke-dashoffset:0" />
        <path
           d="m 1.918,147.897 175.699,0"
           id="path4342"
           style="fill:none;stroke:#000000;stroke-width:0.40062299;stroke-linecap:butt;stroke-linejoin:miter;stroke-miterlimit:4;stroke-opacity:1;stroke-dasharray:1.602492, 1.602492;stroke-dashoffset:0" />
        <path
           d="m 1.918,106.69 175.699,0"
           id="path4344"
           style="fill:none;stroke:#000000;stroke-width:0.40062299;stroke-linecap:butt;stroke-linejoin:miter;stroke-miterlimit:4;stroke-opacity:1;stroke-dasharray:1.602492, 1.602492;stroke-dashoffset:0" />
        <path
           d="m 0.363,230.811 0,-167.285 0,167.285 z m 177.489,0 0,-167.285 0,167.285 z"
           id="path4346"
           style="fill:#a1a1a1;fill-opacity:1;fill-rule:nonzero;stroke:#000000;stroke-width:0.40062299;stroke-linecap:butt;stroke-linejoin:miter;stroke-miterlimit:4;stroke-opacity:1;stroke-dasharray:none" />
        <text
           transform="matrix(0,1,1,0,15.778824,125.43909)"
           id="text4348">
          <tspan
             x="0 8.9098587 16.0089 21.3452 29.357662 36.456703"
             y="0"
             id="tspan4350"
             style="font-size:16.02492523px;font-variant:normal;font-weight:normal;writing-mode:lr-tb;fill:#000000;fill-opacity:1;fill-rule:nonzero;stroke:none;font-family:Times New Roman;-inkscape-font-specification:TimesNewRomanPSMT">Server</tspan>
        </text>
        <path
           d="m 1.918,106.69 175.699,0"
           id="path4352"
           style="fill:none;stroke:#000000;stroke-width:0.40062299;stroke-linecap:butt;stroke-linejoin:miter;stroke-miterlimit:4;stroke-opacity:1;stroke-dasharray:1.602492, 1.602492;stroke-dashoffset:0" />
        <path
           d="m 1.918,147.897 175.699,0"
           id="path4354"
           style="fill:none;stroke:#000000;stroke-width:0.40062299;stroke-linecap:butt;stroke-linejoin:miter;stroke-miterlimit:4;stroke-opacity:1;stroke-dasharray:1.602492, 1.602492;stroke-dashoffset:0" />
        <path
           d="m 80.359,265.874 10.625,0 0,-239.73 -10.625,0 0,239.73 z"
           id="path4356"
           style="fill:#ffffff;fill-opacity:1;fill-rule:nonzero;stroke:#000000;stroke-width:0.396622;stroke-linecap:butt;stroke-linejoin:miter;stroke-miterlimit:4;stroke-opacity:1;stroke-dasharray:none" />
        <path
           d="m 53.684,271.413 62.047,0 0,-32.625 -62.047,0 0,32.625 z"
           id="path4358"
           style="fill:#cecece;fill-opacity:1;fill-rule:evenodd;stroke:#000000;stroke-width:0.40062299;stroke-linecap:butt;stroke-linejoin:miter;stroke-miterlimit:4;stroke-opacity:1;stroke-dasharray:none" />
        <text
           transform="matrix(1,0,0,-1,63.411324,250.52229)"
           id="text4360">
          <tspan
             x="0 10.672599 15.111503 19.502331 26.601372 34.613834"
             y="0"
             id="tspan4362"
             style="font-size:16.02492332px;font-variant:normal;font-weight:normal;writing-mode:lr-tb;fill:#000000;fill-opacity:1;fill-rule:nonzero;stroke:none;font-family:Times New Roman;-inkscape-font-specification:TimesNewRomanPSMT">Client</tspan>
        </text>
        <path
           d="m 40.371,41.401 0,-23.597 c 0,-8.496 20.656,-15.379 46.137,-15.379 25.476,0 46.133,6.883 46.133,15.379 l 0,23.597"
           id="path4364"
           style="fill:#cecece;fill-opacity:1;fill-rule:nonzero;stroke:#000000;stroke-width:0.40062299;stroke-linecap:butt;stroke-linejoin:miter;stroke-miterlimit:4;stroke-opacity:1;stroke-dasharray:none" />
        <path
           d="m 132.641,41.554 c 0,-8.493 -20.657,-15.379 -46.133,-15.379 -25.481,0 -46.137,6.886 -46.137,15.379 0,8.492 20.656,15.379 46.137,15.379 25.476,0 46.133,-6.887 46.133,-15.379 z"
           id="path4366"
           style="fill:#cecece;fill-opacity:1;fill-rule:nonzero;stroke:#000000;stroke-width:0.40062299;stroke-linecap:butt;stroke-linejoin:miter;stroke-miterlimit:4;stroke-opacity:1;stroke-dasharray:none" />
        <text
           transform="matrix(1,0,0,-1,58.862971,36.82391)"
           id="text4368">
          <tspan
             x="0 11.569994 18.669035 23.107939 30.158905 38.171368 45.270409 51.504101"
             y="0"
             id="tspan4370"
             style="font-size:16.02492332px;font-variant:normal;font-weight:normal;writing-mode:lr-tb;fill:#000000;fill-opacity:1;fill-rule:nonzero;stroke:none;font-family:Times New Roman;-inkscape-font-specification:TimesNewRomanPSMT">Database</tspan>
        </text>
        <path
           d="m 0.363,230.811 0,-167.285 0,167.285 z m 177.489,0 0,-167.285 0,167.285 z"
           id="path4372"
           style="fill:#a1a1a1;fill-opacity:1;fill-rule:nonzero;stroke:#000000;stroke-width:0.40062299;stroke-linecap:butt;stroke-linejoin:miter;stroke-miterlimit:4;stroke-opacity:1;stroke-dasharray:none" />
        <path
           d="m 22.52,223.729 129.633,0 0,-32.621 -129.633,0 0,32.621 z"
           id="path4374"
           style="fill:#ffffff;fill-opacity:1;fill-rule:evenodd;stroke:#000000;stroke-width:0.40062299;stroke-linecap:butt;stroke-linejoin:miter;stroke-miterlimit:4;stroke-opacity:1;stroke-dasharray:none" />
        <text
           transform="matrix(1,0,0,-1,32.250159,202.83906)"
           id="text4376">
          <tspan
             x="0 10.672599 18.685061 26.697521 31.136425 36.472725 44.485188 48.876015 53.314919 60.41396 65.750259 69.756493 79.531693 86.582657 94.675247 101.77428"
             y="0"
             id="tspan4378"
             style="font-size:16.02492332px;font-variant:normal;font-weight:normal;writing-mode:lr-tb;fill:#000000;fill-opacity:1;fill-rule:nonzero;stroke:none;font-family:Times New Roman;-inkscape-font-specification:TimesNewRomanPSMT">Controller Layer</tspan>
        </text>
        <path
           d="m 22.52,183.667 129.633,0 0,-32.621 -129.633,0 0,32.621 z"
           id="path4380"
           style="fill:#ffffff;fill-opacity:1;fill-rule:evenodd;stroke:#000000;stroke-width:0.40062299;stroke-linecap:butt;stroke-linejoin:miter;stroke-miterlimit:4;stroke-opacity:1;stroke-dasharray:none" />
        <text
           transform="matrix(1,0,0,-1,44.795563,162.77676)"
           id="text4382">
          <tspan
             x="0 8.9098568 16.008898 21.345198 29.357658 33.796562 40.84753 47.946571 51.952801 61.728004 68.827042 76.839508 83.938545"
             y="0"
             id="tspan4384"
             style="font-size:16.02492332px;font-variant:normal;font-weight:normal;writing-mode:lr-tb;fill:#000000;fill-opacity:1;fill-rule:nonzero;stroke:none;font-family:Times New Roman;-inkscape-font-specification:TimesNewRomanPSMT">Service Layer</tspan>
        </text>
        <path
           d="m 22.52,143.604 129.633,0 0,-32.621 -129.633,0 0,32.621 z"
           id="path4386"
           style="fill:#ffffff;fill-opacity:1;fill-rule:evenodd;stroke:#000000;stroke-width:0.40062299;stroke-linecap:butt;stroke-linejoin:miter;stroke-miterlimit:4;stroke-opacity:1;stroke-dasharray:none" />
        <text
           transform="matrix(1,0,0,-1,49.247164,122.71444)"
           id="text4388">
          <tspan
             x="0 11.569994 23.139988 34.709984 38.716213 48.491417 55.590458 63.650993 70.750038"
             y="0"
             id="tspan4390"
             style="font-size:16.02492332px;font-variant:normal;font-weight:normal;writing-mode:lr-tb;fill:#000000;fill-opacity:1;fill-rule:nonzero;stroke:none;font-family:Times New Roman;-inkscape-font-specification:TimesNewRomanPSMT">DAO Layer</tspan>
        </text>
        <path
           d="m 22.52,102.397 129.633,0 0,-32.621 -129.633,0 0,32.621 z"
           id="path4392"
           style="fill:#ffffff;fill-opacity:1;fill-rule:evenodd;stroke:#000000;stroke-width:0.40062299;stroke-linecap:butt;stroke-linejoin:miter;stroke-miterlimit:4;stroke-opacity:1;stroke-dasharray:none" />
        <text
           transform="matrix(1,0,0,-1,30.6314,81.507504)"
           id="text4394">
          <tspan
             x="0 8.9098568 16.008898 21.345198 27.578892 32.017796 38.251492 42.642319 49.74136 57.753822 64.852867 71.903831 75.910057 85.685265 92.784302 100.79677 107.89581"
             y="0"
             id="tspan4396"
             style="font-size:16.02492332px;font-variant:normal;font-weight:normal;writing-mode:lr-tb;fill:#000000;fill-opacity:1;fill-rule:nonzero;stroke:none;font-family:Times New Roman;-inkscape-font-specification:TimesNewRomanPSMT">Persistence Layer</tspan>
        </text>
      </g>
    </g>
  </g>
</svg>
