<?xml version="1.0" encoding="UTF-8" standalone="no"?>
<!-- Generator: Adobe Illustrator 17.0.0, SVG Export Plug-In . SVG Version: 6.00 Build 0)  -->

<svg
   xmlns:dc="http://purl.org/dc/elements/1.1/"
   xmlns:cc="http://creativecommons.org/ns#"
   xmlns:rdf="http://www.w3.org/1999/02/22-rdf-syntax-ns#"
   xmlns:svg="http://www.w3.org/2000/svg"
   xmlns="http://www.w3.org/2000/svg"
   xmlns:xlink="http://www.w3.org/1999/xlink"
   xmlns:sodipodi="http://sodipodi.sourceforge.net/DTD/sodipodi-0.dtd"
   xmlns:inkscape="http://www.inkscape.org/namespaces/inkscape"
   version="1.1"
   id="Layer_1"
   x="0px"
   y="0px"
   width="152.9375"
   height="251.46875"
   viewBox="0 0 152.9375 251.46875"
   inkscape:version="0.48.5 r10040"
   sodipodi:docname="Snap-logo.svg">
  <metadata
     id="metadata37">
    <rdf:RDF>
      <cc:Work
         rdf:about="">
        <dc:format>image/svg+xml</dc:format>
        <dc:type
           rdf:resource="http://purl.org/dc/dcmitype/StillImage" />
      </cc:Work>
    </rdf:RDF>
  </metadata>
  <sodipodi:namedview
     pagecolor="#ffffff"
     bordercolor="#666666"
     borderopacity="1"
     objecttolerance="10"
     gridtolerance="10"
     guidetolerance="10"
     inkscape:pageopacity="0"
     inkscape:pageshadow="2"
     inkscape:window-width="1407"
     inkscape:window-height="943"
     id="namedview35"
     showgrid="false"
     fit-margin-top="0"
     fit-margin-left="0"
     fit-margin-right="0"
     fit-margin-bottom="0"
     inkscape:zoom="1.888"
     inkscape:cx="109.51227"
     inkscape:cy="89.497972"
     inkscape:window-x="0"
     inkscape:window-y="0"
     inkscape:window-maximized="0"
     inkscape:current-layer="Layer_1" />
  <defs
     id="defs3">
    <linearGradient
       id="bottom_1_"
       gradientUnits="userSpaceOnUse"
       x1="175"
       y1="111.8719"
       x2="175"
       y2="-135.08121"
       gradientTransform="matrix(1,0,0,-1,-50,111)">
      <stop
         offset="0"
         style="stop-color:#002E3B"
         id="stop6" />
      <stop
         offset="1"
         style="stop-color:#002639"
         id="stop8" />
    </linearGradient>
    <radialGradient
       id="right_2_"
       cx="63.3041"
       cy="235.6129"
       r="219.79849"
       gradientUnits="userSpaceOnUse">
      <stop
         offset="0"
         style="stop-color:#00BC85"
         id="stop11" />
      <stop
         offset="1"
         style="stop-color:#149D91"
         id="stop13" />
    </radialGradient>
    <radialGradient
       id="right-2_1_"
       cx="186.8275"
       cy="123.7814"
       r="265.5574"
       gradientTransform="matrix(1,0,0,-1,-50,111)"
       gradientUnits="userSpaceOnUse">
      <stop
         offset="0"
         style="stop-color:#00BC85"
         id="stop16" />
      <stop
         offset="1"
         style="stop-color:#149D91"
         id="stop18" />
    </radialGradient>
    <radialGradient
       id="left_2_"
       cx="118.0562"
       cy="143.23779"
       r="507.59079"
       gradientTransform="matrix(1,0,0,-1,-50,111)"
       gradientUnits="userSpaceOnUse">
      <stop
         offset="0"
         style="stop-color:#004473"
         id="stop21" />
      <stop
         offset="1"
         style="stop-color:#00345F"
         id="stop23" />
    </radialGradient>
    <linearGradient
       id="top_1_"
       gradientUnits="userSpaceOnUse"
       x1="174.922"
       y1="110.6136"
       x2="174.922"
       y2="-135.0903"
       gradientTransform="matrix(1,0,0,-1,-50,111)">
      <stop
         offset="0"
         style="stop-color:#002E3B"
         id="stop26" />
      <stop
         offset="1"
         style="stop-color:#002639"
         id="stop28" />
    </linearGradient>
    <radialGradient
       inkscape:collect="always"
       xlink:href="#right_2_"
       id="radialGradient3249"
       gradientUnits="userSpaceOnUse"
       cx="63.3041"
       cy="235.6129"
       r="219.79849" />
    <radialGradient
       inkscape:collect="always"
       xlink:href="#right_2_"
       id="radialGradient3251"
       gradientUnits="userSpaceOnUse"
       cx="63.3041"
       cy="235.6129"
       r="219.79849" />
    <radialGradient
       inkscape:collect="always"
       xlink:href="#right-2_1_"
       id="radialGradient3253"
       gradientUnits="userSpaceOnUse"
       gradientTransform="matrix(1,0,0,-1,-50,111)"
       cx="186.8275"
       cy="123.7814"
       r="265.5574" />
    <radialGradient
       inkscape:collect="always"
       xlink:href="#right-2_1_"
       id="radialGradient3255"
       gradientUnits="userSpaceOnUse"
       gradientTransform="matrix(1,0,0,-1,-50,111)"
       cx="186.8275"
       cy="123.7814"
       r="265.5574" />
    <linearGradient
       inkscape:collect="always"
       xlink:href="#bottom_1_"
       id="linearGradient3257"
       gradientUnits="userSpaceOnUse"
       gradientTransform="matrix(1,0,0,-1,-50,111)"
       x1="175"
       y1="111.8719"
       x2="175"
       y2="-135.08121" />
    <linearGradient
       inkscape:collect="always"
       xlink:href="#bottom_1_"
       id="linearGradient3259"
       gradientUnits="userSpaceOnUse"
       gradientTransform="matrix(1,0,0,-1,-50,111)"
       x1="175"
       y1="111.8719"
       x2="175"
       y2="-135.08121" />
    <radialGradient
       inkscape:collect="always"
       xlink:href="#left_2_"
       id="radialGradient3261"
       gradientUnits="userSpaceOnUse"
       gradientTransform="matrix(1,0,0,-1,-50,111)"
       cx="118.0562"
       cy="143.23779"
       r="507.59079" />
    <radialGradient
       inkscape:collect="always"
       xlink:href="#left_2_"
       id="radialGradient3263"
       gradientUnits="userSpaceOnUse"
       gradientTransform="matrix(1,0,0,-1,-50,111)"
       cx="118.0562"
       cy="143.23779"
       r="507.59079" />
    <linearGradient
       inkscape:collect="always"
       xlink:href="#top_1_"
       id="linearGradient3265"
       gradientUnits="userSpaceOnUse"
       gradientTransform="matrix(1,0,0,-1,-50,111)"
       x1="174.922"
       y1="110.6136"
       x2="174.922"
       y2="-135.0903" />
    <linearGradient
       inkscape:collect="always"
       xlink:href="#top_1_"
       id="linearGradient3267"
       gradientUnits="userSpaceOnUse"
       gradientTransform="matrix(1,0,0,-1,-50,111)"
       x1="174.922"
       y1="110.6136"
       x2="174.922"
       y2="-135.0903" />
  </defs>
  <g
     inkscape:groupmode="layer"
     id="layer1"
     inkscape:label="Outline"
     style="display:inline"
     transform="translate(1.9375,2.281249)">
    <path
       style="fill:#ffffff;stroke:none;fill-opacity:0.3137255"
       d="M 73.53125,-1.281251 C 48.539142,10.932246 23.567019,23.187321 -1.4375,35.374999 c 0.00951,34.333333 0.021743,68.666671 0.03125,103.000001 11.437117,5.60355 22.82981,11.29895 34.25,16.9375 -11.414844,5.57661 -22.8443069,11.12361 -34.25,16.71875 0.00792,13.19792 0.023335,26.39583 0.03125,39.59375 25.262926,12.34913 50.527259,24.69706 75.8125,37 25.356523,-12.29588 50.69735,-24.62605 76.03125,-36.96875 0.008,-13.21875 0.0233,-26.4375 0.0312,-39.65625 -11.38541,-5.63507 -22.7482,-11.31616 -34.125,-16.96875 11.37299,-5.54574 22.76191,-11.05919 34.125,-16.625 -0.0285,-34.35417 -0.0652,-68.708333 -0.0937,-103.062501 -25.32502,-12.370793 -50.652598,-24.738032 -76,-37.0625 l -0.875,0.4375 z m 39.53125,59.96875 c 0.0104,18.78125 0.0208,37.5625 0.0312,56.343751 C 100.11458,121.35417 87.135417,127.67708 74.15625,134 61.4375,127.66667 48.71875,121.33333 36,115 c 0,-18.791668 0,-37.583334 0,-56.375001 12.8125,-6.25 25.625,-12.5 38.4375,-18.75 12.875,6.270833 25.75,12.541667 38.625,18.8125 z m -7.28125,132.781251 c -10.447917,5.19792 -20.895833,10.39583 -31.34375,15.59375 -10.416667,-5.09375 -20.833333,-10.1875 -31.25,-15.28125 10.59375,-5.1875 21.1875,-10.375 31.78125,-15.5625 10.270833,5.08333 20.541667,10.16667 30.8125,15.25 z"
       id="right_1_"
       inkscape:connector-curvature="0" />
  </g>
  <g
     inkscape:groupmode="layer"
     id="layer2"
     inkscape:label="Normal"
     style="display:inline"
     transform="translate(1.9375,2.281249)">
    <g
       id="g3102"
       transform="translate(0,3.1127931e-6)"
       style="display:inline">
      <polygon
         id="polygon3104"
         points="87.749,156.903 125.455,175.5 51.091,211.945 51.091,174.781 "
         style="fill:url(#radialGradient3249);stroke:url(#radialGradient3251)"
         transform="translate(-50.5,-1.485)" />
      <polygon
         id="polygon3106"
         points="165.596,117.758 165.596,117.758 124.611,137.737 162.301,156.506 198.996,138.632 198.996,38.123 165.596,58.995 165.596,117.758 "
         style="fill:url(#radialGradient3253);stroke:url(#radialGradient3255)"
         transform="translate(-50.5,-1.485)" />
      <g
         id="g3108">
        <polygon
           id="polygon3110"
           points="89.103,193.245 89.093,193.24 51,211.82 124.941,247.884 199,211.9 160.771,192.962 124.913,210.751 89.063,193.264 "
           style="fill:url(#linearGradient3257);stroke:url(#linearGradient3259)"
           transform="translate(-50.5,-1.485)" />
        <polygon
           id="polygon3112"
           points="84.498,58.96 51.096,38.088 51.096,138.597 199,211.912 199,211.912 199,174.746 84.498,117.723 "
           style="fill:url(#radialGradient3261);stroke:url(#radialGradient3263)"
           transform="translate(-50.5,-1.485)" />
        <polygon
           id="polygon3114"
           points="84.396,58.904 84.396,58.892 124.939,39.118 165.485,58.892 198.844,38.046 124.912,1.985 51,38.035 51,38.067 84.368,58.918 "
           style="fill:url(#linearGradient3265);stroke:url(#linearGradient3267)"
           transform="translate(-50.5,-1.485)" />
      </g>
    </g>
  </g>
</svg>
